<?xml version="1.0" standalone="no"?>
<!DOCTYPE svg PUBLIC "-//W3C//DTD SVG 20010904//EN"
 "http://www.w3.org/TR/2001/REC-SVG-20010904/DTD/svg10.dtd">
<svg version="1.0" xmlns="http://www.w3.org/2000/svg"
 width="500.000000pt" height="500.000000pt" viewBox="0 0 500.000000 500.000000"
 preserveAspectRatio="xMidYMid meet">
<metadata>
Created by potrace 1.14, written by Peter Selinger 2001-2017
</metadata>
<g transform="translate(0.000000,500.000000) scale(0.100000,-0.100000)"
fill="#000000" stroke="none">
<path d="M2102 4411 c-66 -23 -91 -46 -146 -135 -32 -54 -402 -695 -536 -930
-9 -17 -33 -58 -52 -91 -20 -33 -47 -80 -60 -105 -31 -55 -194 -339 -208 -360
-5 -8 -18 -32 -29 -52 l-21 -38 23 -4 c12 -3 40 -8 62 -12 41 -7 46 -8 105
-19 19 -4 46 -9 60 -11 14 -2 47 -9 73 -14 27 -6 52 -8 57 -5 4 3 173 293 376
644 202 352 371 638 374 636 4 -3 32 -48 62 -102 31 -54 123 -216 206 -361
l151 -262 -224 -346 c-124 -190 -225 -347 -225 -348 0 -4 88 -22 165 -35 33
-6 74 -13 90 -16 97 -17 167 -26 171 -22 5 5 402 687 452 777 14 25 33 57 43
72 11 14 19 28 19 31 0 13 139 242 146 241 5 -1 17 -16 27 -34 38 -68 440
-766 454 -788 l14 -23 102 55 c56 30 125 66 152 81 28 14 54 30 58 34 4 4 -33
79 -84 167 -50 87 -103 179 -117 204 -13 25 -28 50 -32 55 -4 6 -18 30 -32 55
-71 128 -344 599 -362 623 -75 103 -251 111 -344 15 -16 -16 -80 -118 -143
-228 -63 -109 -117 -196 -121 -192 -5 6 -94 158 -362 627 -85 148 -102 170
-156 199 -63 35 -121 40 -188 17z"/>
<path d="M4205 2742 c-209 -115 -274 -150 -495 -269 -102 -55 -221 -120 -265
-143 -44 -24 -116 -63 -160 -87 -44 -24 -99 -53 -122 -65 l-42 -21 -218 36
c-233 40 -236 40 -358 62 -44 7 -93 16 -110 18 -26 4 -186 31 -255 43 -14 2
-90 15 -170 29 -80 14 -154 27 -165 29 -11 2 -40 7 -65 10 -43 6 -62 9 -120
21 -31 6 -86 15 -120 20 -14 2 -41 6 -60 10 -19 3 -84 15 -145 25 -60 10 -123
21 -140 24 -357 62 -635 104 -652 100 -11 -3 -97 -94 -189 -202 -93 -109 -177
-206 -187 -217 -10 -11 -33 -37 -50 -59 -18 -21 -45 -52 -61 -70 -50 -54 -59
-73 -52 -111 4 -20 16 -41 29 -49 12 -8 92 -26 177 -41 85 -14 166 -28 180
-31 14 -2 39 -6 55 -9 17 -3 53 -10 80 -15 28 -5 64 -12 80 -14 83 -14 102
-17 130 -23 17 -3 39 -7 50 -9 11 -1 36 -5 55 -9 75 -13 381 -67 490 -86 125
-21 419 -73 680 -119 91 -16 179 -32 195 -34 17 -3 41 -8 55 -10 14 -3 41 -8
60 -10 19 -3 47 -8 63 -11 15 -3 37 -7 50 -9 12 -2 51 -10 87 -17 120 -23 125
-21 218 78 116 123 133 147 134 184 1 24 -6 39 -27 57 -54 46 -94 22 -228
-132 l-29 -33 -156 28 c-86 15 -173 30 -192 33 -19 3 -46 8 -60 10 -24 5 -280
50 -350 62 -40 7 -68 12 -107 19 -16 3 -68 12 -118 20 -49 9 -101 18 -115 21
-14 2 -40 7 -59 10 -18 3 -43 8 -55 10 -33 6 -276 49 -536 94 -129 22 -246 42
-260 45 -14 3 -36 7 -50 9 -35 6 -114 20 -120 21 -3 0 -26 4 -51 8 -87 14
-104 18 -111 25 -11 12 347 417 367 415 30 -2 99 -12 120 -16 20 -5 65 -12
139 -23 21 -3 48 -8 60 -10 58 -11 170 -30 231 -39 22 -4 47 -8 55 -10 8 -2
29 -6 45 -9 17 -3 113 -19 215 -36 102 -17 196 -33 210 -35 14 -2 68 -11 120
-20 52 -9 109 -18 125 -21 17 -2 54 -9 83 -14 115 -22 159 -29 197 -35 22 -3
76 -12 120 -20 44 -8 98 -17 120 -20 22 -3 76 -12 120 -20 90 -17 481 -83 537
-91 39 -6 70 5 168 62 30 17 94 52 142 77 47 26 101 55 120 65 18 10 67 37
108 59 41 22 223 120 404 218 l328 178 97 -96 c53 -52 143 -140 200 -196 58
-55 103 -102 100 -104 -3 -3 -139 -78 -434 -242 -27 -15 -88 -49 -135 -74 -99
-55 -271 -150 -419 -233 -57 -32 -109 -58 -115 -58 -6 0 -33 22 -61 48 -107
102 -115 106 -175 87 -23 -7 -49 -61 -42 -88 8 -30 201 -214 240 -228 31 -11
55 -1 262 114 113 62 232 128 265 147 33 18 85 47 116 64 30 17 193 107 361
200 169 93 316 177 327 186 12 9 24 32 28 54 l6 38 -164 160 c-90 88 -219 214
-286 279 -107 105 -125 119 -155 118 -22 0 -86 -29 -193 -87z"/>
<path d="M3075 1875 c-16 -15 -25 -36 -26 -57 0 -18 0 -289 -1 -603 0 -345 -4
-572 -10 -576 -5 -3 -28 -2 -51 3 -23 5 -154 28 -292 53 -137 24 -266 47 -285
50 -19 4 -44 8 -55 10 -28 4 -106 18 -345 60 -113 20 -216 38 -230 39 -14 2
-34 6 -45 9 -11 3 -40 9 -65 12 -25 4 -63 10 -85 15 -22 5 -65 12 -95 15 -30
4 -58 9 -61 10 -3 2 -73 15 -155 29 -140 24 -162 28 -224 41 -14 2 -41 7 -60
10 -19 3 -60 10 -90 15 -30 5 -73 12 -95 15 -22 3 -46 8 -54 11 -8 2 -30 7
-50 10 -20 3 -41 7 -47 9 -8 2 -12 77 -12 257 0 139 -1 266 -1 281 -1 37 -42
77 -78 77 -15 0 -39 -9 -53 -20 l-25 -19 -3 -323 c-2 -178 0 -333 3 -345 6
-24 40 -51 72 -57 10 -2 102 -18 204 -35 101 -18 218 -38 259 -46 41 -8 89
-17 105 -20 64 -11 161 -27 180 -30 11 -2 74 -13 140 -25 66 -12 131 -23 145
-26 76 -13 249 -43 275 -48 17 -3 68 -12 115 -20 149 -27 264 -47 295 -52 45
-7 77 -13 105 -19 14 -3 41 -8 60 -11 19 -3 46 -7 60 -10 14 -3 75 -13 135
-24 61 -10 124 -21 140 -24 17 -3 106 -19 198 -36 l168 -30 87 46 c48 26 114
62 147 79 49 27 330 178 630 340 269 146 419 225 425 225 3 0 17 12 31 26 24
26 24 26 26 280 l3 255 -25 25 c-33 33 -84 32 -115 -1 -23 -24 -23 -28 -24
-239 l0 -214 -60 -33 c-73 -38 -655 -352 -776 -417 -47 -26 -128 -69 -180 -97
l-95 -51 -3 587 -2 586 -26 27 c-34 34 -77 34 -109 1z"/>
</g>
</svg>
